{"title":"Gravity 2013 DVDSCR XVID AC3-MiLLENiUM","uid":9320970,"size":1470579964,"categoryP":"video","categoryS":"movies","magnet":"?xt=urn:btih:d044af14b07a7a182f9d90c8c19c8e09d0cb45b5&amp;dn=Gravity+2013+DVDSCR+XVID+AC3-MiLLENiUM&amp;tr=udp%3A%2F%2Ftracker.openbittorrent.com%3A80&amp;tr=udp%3A%2F%2Fopen.demonii.com%3A1337&amp;tr=udp%3A%2F%2Ftracker.coppersurfer.tk%3A6969&amp;tr=udp%3A%2F%2Fexodus.desync.com%3A6969","seeders":0,"leechers":0,"uploader":".BONE.","files":4,"time":1386550672,"description":"[img]http://www.ultraimg.com/images/o025i.jpg[/img]\n\nGeneral &lt;a href=&quot;\nhttp://www.imdb.com/title/tt1454468/&quot; rel=&quot;nofollow&quot; target=&quot;_NEW&quot;&gt;\nhttp://www.imdb.com/title/tt1454468/&lt;/a&gt;\nComplete name                            : Gravity 2013 DVDSCR  XVID AC3-MiLLENiUM.avi\nsource                                   : THANKS BRO :) :wink:\nFormat                                   : AVI\nFormat/Info                              : Audio Video Interleave\nFile size                                : 1.34 GiB\nDuration                                 : 1h 30mn\nOverall bit rate                         : 2 104 Kbps\nWriting application                      : VirtualDubMod 1.5.10.2 (build 2540/release)\nWriting library                          : VirtualDubMod build 2540/release\n\nVideo\nID                                       : 0\nFormat                                   : MPEG-4 Visual\nFormat profile                           : Advanced Simple@L5\nFormat settings, BVOP                    : 2\nFormat settings, QPel                    : No\nFormat settings, GMC                     : No warppoints\nFormat settings, Matrix                  : Default (H.263)\nMuxing mode                              : Packed bitstream\nCodec ID                                 : XVID\nCodec ID/Hint                            : XviD\nDuration                                 : 1h 30mn\nBit rate                                 : 1 711 Kbps\nWidth                                    : 720 pixels\nHeight                                   : 304 pixels\nDisplay aspect ratio                     : 2.35:1\nFrame rate                               : 23.976 fps\nColor space                              : YUV\nChroma subsampling                       : 4:2:0\nBit depth                                : 8 bits\nScan type                                : Progressive\nCompression mode                         : Lossy\nBits/(Pixel*Frame)                       : 0.326\nStream size                              : 1.09 GiB (81%)\nWriting library                          : XviD 64\n\nAudio\nID                                       : 1\nFormat                                   : AC-3\nFormat/Info                              : Audio Coding 3\nMode extension                           : CM (complete main)\nCodec ID                                 : 2000\nDuration                                 : 1h 30mn\nBit rate mode                            : Constant\nBit rate                                 : 384 Kbps\nChannel(s)                               : 6 channels\nChannel positions                        : Front: L C R, Side: L R, LFE\nSampling rate                            : 48.0 KHz\nBit depth                                : 16 bits\nCompression mode                         : Lossy\nDelay relative to video                  : 31ms\nStream size                              : 250 MiB (18%)\nAlignment                                : Split accross interleaves\nInterleave, duration                     : 42 ms (1.00 video frame)\nInterleave, preload duration             : 500 ms","torrent":{"xt":"urn:btih:d044af14b07a7a182f9d90c8c19c8e09d0cb45b5","amp;dn":"Gravity+2013+DVDSCR+XVID+AC3-MiLLENiUM","amp;tr":["udp%3A%2F%2Ftracker.openbittorrent.com%3A80","udp%3A%2F%2Fopen.demonii.com%3A1337","udp%3A%2F%2Ftracker.coppersurfer.tk%3A6969","udp%3A%2F%2Fexodus.desync.com%3A6969"],"infoHash":"d044af14b07a7a182f9d90c8c19c8e09d0cb45b5","infoHashBuffer":{"type":"Buffer","data":[208,68,175,20,176,122,122,24,47,157,144,200,193,156,142,9,208,203,69,181]},"announce":[],"urlList":[]}}